<svg viewBox="0 0 425.196850394 62.398" width="425.196850394pt" height="62.398pt" xmlns="http://www.w3.org/2000/svg" xmlns:xlink="http://www.w3.org/1999/xlink" xmlns:h5="http://www.w3.org/1999/xhtml"><path fill="#ffffff" fill-rule="nonzero" d="M 0 0v 62.398h 425.196850394v -62.398Z "/><g transform="translate(6 6)"><path fill="#eef4fc" fill-rule="nonzero" d="M 0 0m 0 3c 0 -1.656854249 1.343145751 -3 3 -3h 407.196850394c 1.656854249 0 3 1.343145751 3 3v 44.398c 0 1.656854249 -1.343145751 3 -3 3h -407.196850394c -1.656854249 0 -3 -1.343145751 -3 -3Z "/><path fill="#2a78d6" fill-rule="nonzero" d="M 0 0m 1.5 50.398c -1.656854249 0 -3 -1.343145751 -3 -3v -44.398c 0 -1.656854249 1.343145751 -3 3 -3Z "/><g transform="matrix(1 0 0 -1 10 14.909)"><use xlink:href="#g993E36BA7BA4892FCCFF7B3138C263CE" x="0" y="0" fill="#2a78d6" fill-rule="nonzero"/><use xlink:href="#g1CBF4650C5046F8AF55AD63A52506D92" x="4.84" y="0" fill="#2a78d6" fill-rule="nonzero"/><use xlink:href="#g4A2172D64795B0BC2B2EA3434149801B" x="11.16" y="0" fill="#2a78d6" fill-rule="nonzero"/><use xlink:href="#g36373D842CA70C24B8FF22BF57C6A941" x="17.368" y="0" fill="#2a78d6" fill-rule="nonzero"/><use xlink:href="#g6D32D22643AC2B2978125EE7918F12F6" x="25.04" y="0" fill="#2a78d6" fill-rule="nonzero"/><use xlink:href="#gB62B66D7D6A6B41D88F7471CB3C234E" x="31.376" y="0" fill="#2a78d6" fill-rule="nonzero"/><use xlink:href="#g1824BBCFB879D09AFAED9516913B3232" x="36.472" y="0" fill="#2a78d6" fill-rule="nonzero"/></g><g transform="matrix(1 0 0 -1 51.344 14.909)"/><g transform="matrix(1 0 0 -1 58.169 14.909)"><use xlink:href="#gB9BC47AE0D91B21539E28C4407E6407B" x="0" y="0" fill="#1a2744" fill-rule="nonzero"/><use xlink:href="#g6BB6B653E7E1258CBEFC2EBFD3B05524" x="6.72" y="0" fill="#1a2744" fill-rule="nonzero"/><use xlink:href="#g7710FAF248CB2A241456E353248E57F5" x="12.033" y="0" fill="#1a2744" fill-rule="nonzero"/><use xlink:href="#gBBA8CA93D9BDB130AD7153647156A043" x="16.527" y="0" fill="#1a2744" fill-rule="nonzero"/><use xlink:href="#g6BB6B653E7E1258CBEFC2EBFD3B05524" x="19.908" y="0" fill="#1a2744" fill-rule="nonzero"/><use xlink:href="#gDE2D65F327D4D5C07EEDB64D6BA51365" x="25.221" y="0" fill="#1a2744" fill-rule="nonzero"/><use xlink:href="#gD497A51AAB66074A0A4A96DE89E299D7" x="31.689" y="0" fill="#1a2744" fill-rule="nonzero"/><use xlink:href="#gB6EAD33A01AED58CC6FC183BB53E90A4" x="36.477" y="0" fill="#1a2744" fill-rule="nonzero"/><use xlink:href="#g2F1DC258CEA6FA204F7034152FDE3C00" x="44.2365" y="0" fill="#1a2744" fill-rule="nonzero"/><use xlink:href="#gD3671B133CD746AAB07834C289F0EA52" x="50.127" y="0" fill="#1a2744" fill-rule="nonzero"/><use xlink:href="#g245E286C51ED100E38F9032BFC4D6EE1" x="52.3845" y="0" fill="#1a2744" fill-rule="nonzero"/><use xlink:href="#gDE2D65F327D4D5C07EEDB64D6BA51365" x="58.6635" y="0" fill="#1a2744" fill-rule="nonzero"/><use xlink:href="#g6DAAF1986723B7B88EC7AAC1545A7ED" x="67.7565" y="0" fill="#1a2744" fill-rule="nonzero"/><use xlink:href="#g518A476B74F8DF4A8372513E26DF1880" x="73.9305" y="0" fill="#1a2744" fill-rule="nonzero"/><use xlink:href="#g7710FAF248CB2A241456E353248E57F5" x="79.716" y="0" fill="#1a2744" fill-rule="nonzero"/><use xlink:href="#gC26B91A7269DE746A588B85FB382967" x="84.21" y="0" fill="#1a2744" fill-rule="nonzero"/><use xlink:href="#gB6EAD33A01AED58CC6FC183BB53E90A4" x="87.969" y="0" fill="#1a2744" fill-rule="nonzero"/><use xlink:href="#g7CFC8904D6787F21F298CCE9AAF2959B" x="93.1035" y="0" fill="#1a2744" fill-rule="nonzero"/><use xlink:href="#gB6EAD33A01AED58CC6FC183BB53E90A4" x="97.209" y="0" fill="#1a2744" fill-rule="nonzero"/><use xlink:href="#g245E286C51ED100E38F9032BFC4D6EE1" x="102.3435" y="0" fill="#1a2744" fill-rule="nonzero"/><use xlink:href="#gBBA8CA93D9BDB130AD7153647156A043" x="108.6225" y="0" fill="#1a2744" fill-rule="nonzero"/><use xlink:href="#g6C61257ED33AFE6F8EEFAA730EA7AE53" x="112.0035" y="0" fill="#1a2744" fill-rule="nonzero"/><use xlink:href="#g6C61257ED33AFE6F8EEFAA730EA7AE53" x="115.416" y="0" fill="#1a2744" fill-rule="nonzero"/><use xlink:href="#gB6EAD33A01AED58CC6FC183BB53E90A4" x="118.8285" y="0" fill="#1a2744" fill-rule="nonzero"/><use xlink:href="#g973E74818DE1222E7B8CD08317AFEFAD" x="126.588" y="0" fill="#1a2744" fill-rule="nonzero"/><use xlink:href="#g2F1DC258CEA6FA204F7034152FDE3C00" x="134.526" y="0" fill="#1a2744" fill-rule="nonzero"/><use xlink:href="#gB6EAD33A01AED58CC6FC183BB53E90A4" x="140.4165" y="0" fill="#1a2744" fill-rule="nonzero"/><use xlink:href="#g245E286C51ED100E38F9032BFC4D6EE1" x="145.551" y="0" fill="#1a2744" fill-rule="nonzero"/><use xlink:href="#g20BA59AEF5EFB619143DE199CADB2BB0" x="151.83" y="0" fill="#1a2744" fill-rule="nonzero"/><use xlink:href="#g6BB6B653E7E1258CBEFC2EBFD3B05524" x="160.3455" y="0" fill="#1a2744" fill-rule="nonzero"/><use xlink:href="#gD497A51AAB66074A0A4A96DE89E299D7" x="165.6585" y="0" fill="#1a2744" fill-rule="nonzero"/><use xlink:href="#gC26B91A7269DE746A588B85FB382967" x="170.4465" y="0" fill="#1a2744" fill-rule="nonzero"/><use xlink:href="#gBBA8CA93D9BDB130AD7153647156A043" x="174.2055" y="0" fill="#1a2744" fill-rule="nonzero"/><use xlink:href="#g7CFC8904D6787F21F298CCE9AAF2959B" x="177.5865" y="0" fill="#1a2744" fill-rule="nonzero"/><use xlink:href="#g3E169982254737EC9950E61E5FD7A437" x="181.692" y="0" fill="#1a2744" fill-rule="nonzero"/></g><g transform="matrix(1 0 0 -1 123.800441864 38.3786)"><use xlink:href="#g5F8CB9E3C9C80C53151BD4616A8D8382" x="0" y="0" fill="#1a2744" fill-rule="nonzero"/></g><g transform="matrix(1 0 0 -1 130.047941864 34.5671)"><use xlink:href="#gE1191644B8AD687076B3ABC30E3AED9E" x="0" y="0" fill="#1a2744" fill-rule="nonzero"/></g><g transform="matrix(1 0 0 -1 129.795941864 40.9721)"><use xlink:href="#g14247BF656216A597F56E88701D6234E" x="0" y="0" fill="#1a2744" fill-rule="nonzero"/></g><g transform="matrix(1 0 0 -1 137.73475853 38.3786)"><use xlink:href="#g697EDEA13A57B66236BD86B36C96CC91" x="0" y="0" fill="#1a2744" fill-rule="nonzero"/></g><g transform="matrix(1 0 0 -1 148.820425197 38.3786)"><use xlink:href="#g5CA98E4DB16CEDBBAF20653A34816D5D" x="0" y="0" fill="#1a2744" fill-rule="nonzero"/></g><g transform="matrix(1 0 0 -1 156.369925197 34.4894)"><use xlink:href="#gE1191644B8AD687076B3ABC30E3AED9E" x="0" y="0" fill="#1a2744" fill-rule="nonzero"/></g><g transform="matrix(1 0 0 -1 156.338425197 41.0498)"><use xlink:href="#g2B03AB0F5AB407A22EF3D63210D28B37" x="0" y="0" fill="#1a2744" fill-rule="nonzero"/></g><g transform="matrix(1 0 0 -1 161.140075197 38.3786)"><use xlink:href="#g5F8CB9E3C9C80C53151BD4616A8D8382" x="0" y="0" fill="#1a2744" fill-rule="nonzero"/></g><g transform="matrix(1 0 0 -1 167.387575197 34.4894)"><use xlink:href="#gE1191644B8AD687076B3ABC30E3AED9E" x="0" y="0" fill="#1a2744" fill-rule="nonzero"/></g><g transform="matrix(1 0 0 -1 167.135575197 41.0498)"><use xlink:href="#g2B03AB0F5AB407A22EF3D63210D28B37" x="0" y="0" fill="#1a2744" fill-rule="nonzero"/></g><g transform="matrix(1 0 0 -1 174.49105853 38.3786)"><use xlink:href="#g2E528393F503661DFA479F53C57DA451" x="0" y="0" fill="#1a2744" fill-rule="nonzero"/></g><g transform="matrix(1 0 0 -1 184.993391864 38.3786)"><use xlink:href="#g5CA98E4DB16CEDBBAF20653A34816D5D" x="0" y="0" fill="#1a2744" fill-rule="nonzero"/></g><g transform="matrix(1 0 0 -1 192.542891864 34.4894)"><use xlink:href="#gE1191644B8AD687076B3ABC30E3AED9E" x="0" y="0" fill="#1a2744" fill-rule="nonzero"/></g><g transform="matrix(1 0 0 -1 192.511391864 41.0498)"><use xlink:href="#gE1191644B8AD687076B3ABC30E3AED9E" x="0" y="0" fill="#1a2744" fill-rule="nonzero"/></g><g transform="matrix(1 0 0 -1 197.313041864 38.3786)"><use xlink:href="#g5F8CB9E3C9C80C53151BD4616A8D8382" x="0" y="0" fill="#1a2744" fill-rule="nonzero"/></g><g transform="matrix(1 0 0 -1 203.560541864 34.4894)"><use xlink:href="#gE1191644B8AD687076B3ABC30E3AED9E" x="0" y="0" fill="#1a2744" fill-rule="nonzero"/></g><g transform="matrix(1 0 0 -1 203.308541864 41.0498)"><use xlink:href="#gE1191644B8AD687076B3ABC30E3AED9E" x="0" y="0" fill="#1a2744" fill-rule="nonzero"/></g><g transform="matrix(1 0 0 -1 210.664025197 38.3786)"><use xlink:href="#g2E528393F503661DFA479F53C57DA451" x="0" y="0" fill="#1a2744" fill-rule="nonzero"/></g><g transform="matrix(1 0 0 -1 221.16635853 38.3786)"><use xlink:href="#g25692DF91EE05E63BB6B39D3AB17D1AD" x="0" y="0" fill="#1a2744" fill-rule="nonzero"/></g><g transform="matrix(1 0 0 -1 226.41635853 38.3786)"><use xlink:href="#g5CA98E4DB16CEDBBAF20653A34816D5D" x="0" y="0" fill="#1a2744" fill-rule="nonzero"/></g><g transform="matrix(1 0 0 -1 233.93435853 40.9721)"><use xlink:href="#g2B03AB0F5AB407A22EF3D63210D28B37" x="0" y="0" fill="#1a2744" fill-rule="nonzero"/></g><g transform="matrix(1 0 0 -1 238.70450853 38.3786)"><use xlink:href="#g5CA98E4DB16CEDBBAF20653A34816D5D" x="0" y="0" fill="#1a2744" fill-rule="nonzero"/></g><g transform="matrix(1 0 0 -1 246.22250853 40.9721)"><use xlink:href="#gE1191644B8AD687076B3ABC30E3AED9E" x="0" y="0" fill="#1a2744" fill-rule="nonzero"/></g><g transform="matrix(1 0 0 -1 250.99265853 38.3786)"><use xlink:href="#g6DEC9C647F9699520A453CE3EBF85972" x="0" y="0" fill="#1a2744" fill-rule="nonzero"/></g><g transform="matrix(1 0 0 -1 256.42115853 40.9721)"><use xlink:href="#g2B03AB0F5AB407A22EF3D63210D28B37" x="0" y="0" fill="#1a2744" fill-rule="nonzero"/></g><g transform="matrix(1 0 0 -1 260.60330853 40.9721)"><use xlink:href="#g81FD5DA4387488C01EBC0EB45555DEB4" x="0" y="0" fill="#1a2744" fill-rule="nonzero"/></g><g transform="matrix(1 0 0 -1 263.09495853 40.9721)"><use xlink:href="#gE1191644B8AD687076B3ABC30E3AED9E" x="0" y="0" fill="#1a2744" fill-rule="nonzero"/></g><g transform="matrix(1 0 0 -1 267.86510853 38.3786)"><use xlink:href="#g5F8CB9E3C9C80C53151BD4616A8D8382" x="0" y="0" fill="#1a2744" fill-rule="nonzero"/></g><g transform="matrix(1 0 0 -1 273.86060853 40.9721)"><use xlink:href="#g2B03AB0F5AB407A22EF3D63210D28B37" x="0" y="0" fill="#1a2744" fill-rule="nonzero"/></g><g transform="matrix(1 0 0 -1 278.63075853 38.3786)"><use xlink:href="#g5F8CB9E3C9C80C53151BD4616A8D8382" x="0" y="0" fill="#1a2744" fill-rule="nonzero"/></g><g transform="matrix(1 0 0 -1 284.62625853 40.9721)"><use xlink:href="#gE1191644B8AD687076B3ABC30E3AED9E" x="0" y="0" fill="#1a2744" fill-rule="nonzero"/></g></g><defs><symbol id="g993E36BA7BA4892FCCFF7B3138C263CE" overflow="visible"><path d="M 0 0m 1.936 0.976v 1.416h 0.648c 0.552 0 0.704 -0.152 0.728 -0.512c 0.048 -0.048 0.296 -0.048 0.344 0c -0.016 0.28 -0.016 0.52 -0.016 0.704c 0 0.184 0.008 0.456 0.016 0.688c -0.048 0.048 -0.296 0.048 -0.344 0c -0.024 -0.44 -0.192 -0.512 -0.728 -0.512h -0.648v 1.672c 0 0.192 0.136 0.392 0.328 0.392h 0.72c 0.6 0 0.808 -0.344 0.984 -0.896c 0.096 -0.016 0.2 0 0.28 0.04c -0.024 0.352 -0.088 1.136 -0.096 1.2c 0 0.016 -0.008 0.024 -0.032 0.024c -0.136 -0.024 -0.2 -0.032 -0.392 -0.032h -2.376c 0 0 -0.832 0.008 -1.232 0.016c -0.048 -0.048 -0.048 -0.224 0 -0.272c 0.56 -0.024 0.696 -0.064 0.696 -0.728v -3.2c 0 -0.664 -0.224 -0.696 -0.664 -0.72c -0.08 -0.048 -0.08 -0.224 0 -0.272c 0.32 0.008 0.912 0.016 1.232 0.016c 0.32 0 0.976 -0.008 1.296 -0.016c 0.08 0.048 0.08 0.224 0 0.272c -0.44 0.024 -0.744 0.056 -0.744 0.72Z "/></symbol><symbol id="g1CBF4650C5046F8AF55AD63A52506D92" overflow="visible"><path d="M 0 0m 5.552 2.632c 0 1.592 -1.184 2.632 -2.648 2.632c -0.8 0 -1.496 -0.344 -1.96 -0.896c -0.416 -0.496 -0.648 -1.16 -0.648 -1.896c 0 -1.584 1.256 -2.552 2.616 -2.552c 0.824 0 1.496 0.296 1.952 0.792c 0.44 0.48 0.688 1.136 0.688 1.92Z m -2.744 2.296c 0.856 0 1.536 -0.84 1.536 -2.464c 0 -1.328 -0.464 -2.208 -1.272 -2.208c -0.88 0 -1.568 0.872 -1.568 2.376c 0 1.632 0.592 2.296 1.304 2.296Z "/></symbol><symbol id="g4A2172D64795B0BC2B2EA3434149801B" overflow="visible"><path d="M 0 0m 2.896 5.232c -0.32 0 -2.328 -0.056 -2.648 -0.056c -0.08 -0.048 -0.08 -0.224 0 -0.272c 0.44 -0.024 0.664 -0.056 0.664 -0.72v -3.208c 0 -0.664 -0.224 -0.696 -0.664 -0.72c -0.08 -0.048 -0.08 -0.224 0 -0.272c 0.32 0.008 0.912 0.016 1.232 0.016c 0.32 0 0.896 -0.008 1.216 -0.016c 0.08 0.048 0.08 0.224 0 0.272c -0.44 0.024 -0.664 0.056 -0.664 0.72v 1.288c 0.632 0 0.704 -0.056 0.816 -0.24l 0.936 -1.392c 0.248 -0.36 0.576 -0.712 1.056 -0.712c 0.32 0 0.736 0.024 0.816 0.064c 0.032 0.056 0.024 0.208 -0.008 0.272c -0.36 0 -0.544 0.192 -0.768 0.528l -1.088 1.68c 0.432 0.176 1.056 0.592 1.056 1.408c 0 0.32 -0.12 0.8 -0.616 1.096c -0.296 0.176 -0.736 0.264 -1.336 0.264Z m 0.744 -1.496c 0 -0.984 -0.592 -1.136 -1.264 -1.136h -0.344v 1.592c 0 0.544 0.184 0.712 0.608 0.712c 0.464 0 1 -0.192 1 -1.168Z "/></symbol><symbol id="g36373D842CA70C24B8FF22BF57C6A941" overflow="visible"><path d="M 0 0m 5.304 0.928c 0.04 -0.648 0.008 -0.648 -0.512 -0.672c -0.048 -0.048 -0.048 -0.224 0 -0.272c 0.376 0.008 1.096 0.016 1.336 0.016c 0.24 0 0.608 -0.008 0.872 -0.016c 0.048 0.048 0.048 0.224 0 0.272c -0.544 0.024 -0.568 0.048 -0.616 0.712l -0.24 3.368c -0.032 0.432 0.008 0.536 0.552 0.568c 0.048 0.048 0.048 0.224 0 0.272l -1.608 -0.016l -1.52 -3.552h -0.04l -1.432 3.552l -1.64 0.016c -0.048 -0.048 -0.048 -0.224 0 -0.272c 0.552 -0.032 0.6 -0.04 0.544 -0.64l -0.32 -3.296c -0.048 -0.48 -0.144 -0.672 -0.6 -0.712c -0.048 -0.048 -0.048 -0.224 0 -0.272c 0.24 0.008 0.496 0.016 0.688 0.016c 0.192 0 0.672 -0.008 0.912 -0.016c 0.048 0.048 0.048 0.224 0 0.272c -0.528 0.04 -0.568 0.28 -0.528 0.728l 0.208 3h 0.032l 1.576 -3.944c 0.024 -0.056 0.112 -0.104 0.16 -0.104c 0.048 0 0.12 0.032 0.152 0.104l 1.8 4.232h 0.016Z "/></symbol><symbol id="g6D32D22643AC2B2978125EE7918F12F6" overflow="visible"><path d="M 0 0m 1.816 4.176c 0 0.664 0.12 0.704 0.736 0.728c 0.048 0.048 0.048 0.224 0 0.272c -0.392 -0.008 -0.92 -0.016 -1.304 -0.016c -0.36 0 -0.768 0.008 -1.168 0.016c -0.048 -0.048 -0.048 -0.224 0 -0.272c 0.48 -0.024 0.616 -0.064 0.616 -0.728v -2.288c 0 -0.776 0.248 -1.336 0.696 -1.632c 0.504 -0.328 1.24 -0.336 1.616 -0.336c 1.64 0 2.16 1.016 2.16 2.44v 1.816c 0 0.664 0.144 0.68 0.616 0.728c 0.048 0.048 0.048 0.224 0 0.272c -0.312 -0.008 -0.632 -0.016 -0.856 -0.016c -0.232 0 -0.648 0.008 -1.016 0.016c -0.048 -0.048 -0.048 -0.224 0 -0.272c 0.608 -0.048 0.736 -0.064 0.736 -0.728v -1.96c 0 -0.896 -0.12 -1.96 -1.472 -1.96c -0.384 0 -0.712 0.168 -0.952 0.4c -0.392 0.376 -0.408 0.976 -0.408 1.496Z "/></symbol><symbol id="gB62B66D7D6A6B41D88F7471CB3C234E" overflow="visible"><path d="M 0 0m 2.792 0.336h -0.48c -0.168 0 -0.28 0.152 -0.28 0.632v 3.216c 0 0.664 0.224 0.696 0.664 0.72c 0.08 0.048 0.08 0.224 0 0.272c -0.656 -0.008 -0.896 -0.016 -1.216 -0.016c -0.32 0 -1.232 0.016 -1.232 0.016c -0.08 -0.048 -0.08 -0.224 0 -0.272c 0.44 -0.024 0.664 -0.056 0.664 -0.72v -3.208c 0 -0.664 -0.224 -0.696 -0.664 -0.72c -0.08 -0.048 -0.08 -0.224 0 -0.272c 0 0 0.92 0.016 1.232 0.016h 1.784c 0.232 0 0.96 -0.016 0.96 -0.016c 0.08 0.4 0.16 0.92 0.208 1.336c -0.08 0.04 -0.248 0.056 -0.344 0.04c -0.16 -0.576 -0.456 -1.024 -1.296 -1.024Z "/></symbol><symbol id="g1824BBCFB879D09AFAED9516913B3232" overflow="visible"><path d="M 0 0m 2.584 2.92h -0.648v 1.512c 0 0.192 0.136 0.392 0.328 0.392h 0.68c 0.6 0 0.768 -0.304 0.944 -0.856c 0.096 -0.016 0.264 0 0.344 0.04c -0.04 0.328 -0.08 1.096 -0.096 1.16c 0 0.016 -0.008 0.024 -0.032 0.024c -0.136 -0.024 -0.2 -0.032 -0.392 -0.032h -2.36c 0 0 -0.832 0.008 -1.232 0.016c -0.048 -0.048 -0.048 -0.224 0 -0.272c 0.56 -0.024 0.696 -0.064 0.696 -0.728v -3.2c 0 -0.664 -0.136 -0.696 -0.696 -0.72c -0.048 -0.048 -0.048 -0.224 0 -0.272c 0.392 0.008 1.24 0.016 1.24 0.016h 1.88c 0.384 0 1.104 -0.016 1.104 -0.016c 0.112 0.4 0.152 0.928 0.216 1.336c -0.08 0.048 -0.256 0.064 -0.36 0.04c -0.16 -0.576 -0.52 -1.024 -1.128 -1.024h -0.808c -0.176 0 -0.328 0.168 -0.328 0.384v 1.832h 0.648c 0.552 0 0.704 -0.152 0.728 -0.512c 0.048 -0.048 0.296 -0.048 0.344 0c -0.008 0.28 -0.016 0.432 -0.016 0.704c 0 0.272 0.008 0.448 0.016 0.688c -0.048 0.048 -0.296 0.048 -0.344 0c -0.024 -0.44 -0.192 -0.512 -0.728 -0.512Z "/></symbol><symbol id="gB9BC47AE0D91B21539E28C4407E6407B" overflow="visible"><path d="M 0 0m 6.237 5.7015c 0.252 0.63 0.588 0.7035 1.05 0.735c 0.063 0.063 0.063 0.294 0 0.357c -0.315 -0.0105 -0.651 -0.021 -0.987 -0.021c -0.4305 0 -1.008 0.0105 -1.3965 0.021c -0.063 -0.063 -0.063 -0.294 0 -0.357c 0.399 -0.0315 0.882 -0.0945 0.7245 -0.4935l -1.449 -3.738l -0.168 -0.4095l -0.168 0.4725l -1.302 3.7485c -0.1155 0.3465 0.273 0.3885 0.777 0.42c 0.063 0.063 0.063 0.294 0 0.357c -0.3885 -0.0105 -1.4385 -0.021 -1.848 -0.021c -0.4305 0 -1.0185 0.0105 -1.407 0.021c -0.063 -0.063 -0.063 -0.294 0 -0.357c 0.4095 -0.042 0.756 -0.0945 0.945 -0.567l 2.289 -5.754c 0.0735 -0.1785 0.1995 -0.2415 0.3465 -0.2415c 0.147 0 0.2835 0.0525 0.357 0.2415Z "/></symbol><symbol id="g6BB6B653E7E1258CBEFC2EBFD3B05524" overflow="visible"><path d="M 0 0m 3.0975 0.5145c 0.0735 -0.4305 0.357 -0.6195 0.819 -0.6195c 0.5775 0 0.987 0.2205 1.3755 0.588c -0.021 0.126 -0.063 0.21 -0.189 0.294c -0.1365 -0.105 -0.2415 -0.147 -0.441 -0.147c -0.231 0 -0.294 0.189 -0.294 0.7035l 0.021 1.512c 0 1.512 -0.9345 1.8165 -1.7955 1.8165c -0.7665 0 -1.9425 -0.441 -1.9425 -1.134c 0 -0.294 0.126 -0.525 0.5355 -0.525c 0.378 0 0.651 0.231 0.651 0.483c 0 0.0525 -0.0105 0.1155 -0.021 0.1785c -0.021 0.105 -0.042 0.21 -0.021 0.315c 0.0105 0.1155 0.0945 0.2415 0.441 0.2415c 0.441 0 0.8085 -0.189 0.8085 -1.5225l -0.7035 -0.2205c -1.1025 -0.3465 -1.8795 -0.651 -1.8795 -1.4805c 0 -0.7245 0.399 -1.1025 1.3125 -1.1025c 0.3045 0 0.9135 0.336 1.26 0.609Z m -0.0525 1.7745v -1.386c -0.2625 -0.21 -0.525 -0.378 -0.714 -0.378c -0.4515 0 -0.609 0.3045 -0.609 0.63c 0 0.3885 0.0315 0.714 0.777 0.9555Z "/></symbol><symbol id="g7710FAF248CB2A241456E353248E57F5" overflow="visible"><path d="M 0 0m 2.394 2.814c 0 0.378 0.1155 0.5355 0.252 0.693c 0.084 0.105 0.1785 0.1785 0.336 0.1785c 0.0945 0 0.21 -0.0945 0.294 -0.1995c 0.0735 -0.084 0.252 -0.168 0.4935 -0.168c 0.3045 0 0.5985 0.315 0.5985 0.756c 0 0.273 -0.315 0.588 -0.693 0.588c -0.3675 0 -0.7665 -0.315 -1.2495 -1.008h -0.042c -0.021 0.315 -0.0735 0.8295 -0.0735 0.8295c -0.0105 0.0945 -0.0945 0.1785 -0.2415 0.1785c -0.4935 -0.126 -1.05 -0.273 -1.743 -0.3465c -0.021 -0.063 0 -0.2625 0.021 -0.3255c 0.5775 -0.0525 0.6825 -0.147 0.6825 -0.7455v -1.9635c 0 -0.8715 -0.1155 -0.8925 -0.756 -0.945c -0.063 -0.063 -0.063 -0.294 0 -0.357c 0.441 0.0105 0.882 0.021 1.4385 0.021c 0.5565 0 0.987 -0.0105 1.4385 -0.021c 0.063 0.063 0.063 0.294 0 0.357c -0.6405 0.042 -0.756 0.0735 -0.756 0.945Z "/></symbol><symbol id="gBBA8CA93D9BDB130AD7153647156A043" overflow="visible"><path d="M 0 0m 2.436 1.281v 2.0895c 0 0.525 0.042 1.113 0.042 1.113c 0 0.1155 -0.0945 0.1785 -0.2415 0.1785c -0.294 -0.1155 -1.1445 -0.1995 -1.869 -0.294c -0.021 -0.063 0 -0.273 0.021 -0.336c 0.5775 -0.0525 0.6825 -0.1365 0.6825 -0.735v -2.016c 0 -0.8715 -0.1155 -0.8925 -0.756 -0.945c -0.063 -0.063 -0.063 -0.294 0 -0.357c 0.441 0.0105 0.882 0.021 1.4385 0.021c 0.5565 0 0.987 -0.0105 1.4385 -0.021c 0.063 0.063 0.063 0.294 0 0.357c -0.6405 0.042 -0.756 0.0735 -0.756 0.945Z m -1.4175 4.977c 0 -0.3465 0.252 -0.693 0.672 -0.693c 0.4725 0 0.7455 0.378 0.7455 0.651c 0 0.315 -0.2415 0.693 -0.6825 0.693c -0.4935 0 -0.735 -0.336 -0.735 -0.651Z "/></symbol><symbol id="gDE2D65F327D4D5C07EEDB64D6BA51365" overflow="visible"><path d="M 0 0m 2.394 1.281v 2.1105c 0.42 0.2835 0.84 0.4935 1.029 0.4935c 0.42 0 0.735 -0.189 0.735 -0.7875v -1.7535c 0 -0.882 -0.168 -0.9765 -0.5985 -1.008c -0.063 -0.063 -0.063 -0.294 0 -0.357c 0.441 0.0105 0.777 0.021 1.281 0.021c 0.5775 0 1.0395 -0.0105 1.491 -0.021c 0.063 0.063 0.063 0.294 0 0.357c -0.6405 0.0315 -0.8085 0.126 -0.8085 1.008v 1.638c 0 1.155 -0.4935 1.68 -1.3965 1.68c -0.42 0 -1.1655 -0.462 -1.743 -0.861c -0.0315 0.3675 -0.0735 0.6825 -0.0735 0.6825c -0.0105 0.126 -0.0945 0.1785 -0.2415 0.1785c -0.3885 -0.105 -1.0185 -0.252 -1.743 -0.3465c -0.021 -0.063 0 -0.273 0.021 -0.336c 0.5775 -0.0525 0.6825 -0.1365 0.6825 -0.735v -1.9635c 0 -0.8715 -0.1155 -0.8925 -0.756 -0.945c -0.063 -0.063 -0.063 -0.294 0 -0.357c 0.441 0.0105 0.882 0.021 1.4385 0.021c 0.483 0 0.777 -0.0105 1.2285 -0.021c 0.063 0.063 0.063 0.294 0 0.357c -0.441 0.042 -0.546 0.0735 -0.546 0.945Z "/></symbol><symbol id="gD497A51AAB66074A0A4A96DE89E299D7" overflow="visible"><path d="M 0 0m 4.431 0.9135c 0 0.126 -0.021 0.3255 -0.1365 0.3255c -0.42 -0.3885 -0.777 -0.588 -1.0815 -0.588c -0.7875 0 -1.407 0.567 -1.407 1.827c 0 1.1655 0.2625 1.743 0.819 1.743c 0.3885 0 0.546 -0.4095 0.5775 -0.7455c 0.0315 -0.2835 0.315 -0.4935 0.651 -0.4935c 0.336 0 0.5775 0.2625 0.5775 0.588c 0 0.4725 -0.567 1.092 -1.7115 1.092c -1.239 0 -2.331 -0.9975 -2.331 -2.5515c 0 -0.6825 0.2415 -1.281 0.651 -1.6695c 0.4095 -0.3885 0.8925 -0.546 1.638 -0.546c 0.63 0 1.3545 0.441 1.7535 1.0185Z "/></symbol><symbol id="gB6EAD33A01AED58CC6FC183BB53E90A4" overflow="visible"><path d="M 0 0m 4.5255 1.3545c -0.4305 -0.441 -0.9975 -0.5565 -1.3965 -0.5565c -0.819 0 -1.323 0.4725 -1.323 1.5015c 0 0.0735 0.0105 0.1155 0.0105 0.168h 2.52c 0.252 0 0.3045 0.1785 0.3045 0.3255c 0 0.8925 -0.3465 1.869 -1.89 1.869c -1.1025 0 -2.3625 -0.9765 -2.3625 -2.583c 0 -0.609 0.2205 -1.2495 0.672 -1.659c 0.399 -0.357 0.9135 -0.525 1.659 -0.525c 0.7245 0 1.4385 0.3675 1.9635 1.134c 0 0.1365 -0.0525 0.3255 -0.1575 0.3255Z m -2.667 1.533c 0.0105 0.3675 0.063 0.7665 0.21 0.9765c 0.168 0.252 0.4515 0.357 0.567 0.357c 0.2835 0 0.672 -0.273 0.672 -1.113c 0 -0.063 0 -0.1995 -0.021 -0.2205Z "/></symbol><symbol id="g2F1DC258CEA6FA204F7034152FDE3C00" overflow="visible"><path d="M 0 0m 3.7275 0.504c 0.021 -0.252 0.042 -0.4305 0.042 -0.4305c 0.0105 -0.126 0.0945 -0.1785 0.2415 -0.1785c 0.3885 0.105 1.0185 0.252 1.743 0.3465c 0.021 0.063 0 0.273 -0.021 0.336c -0.567 0.0525 -0.6825 0.2205 -0.6825 0.819v 4.725c 0 0.6825 0.0315 1.071 0.0315 1.071c 0 0.0945 -0.0735 0.1365 -0.168 0.1365c -0.3885 -0.126 -1.2285 -0.2415 -1.974 -0.273c -0.0315 -0.126 -0.021 -0.2625 0.0315 -0.357c 0.6615 -0.0525 0.714 -0.063 0.714 -0.7875v -1.365c -0.1995 0.063 -0.4515 0.1155 -0.756 0.1155c -1.3545 0 -2.541 -1.1865 -2.541 -2.583c 0 -0.6195 0.2205 -1.344 0.735 -1.743c 0.378 -0.294 0.6405 -0.441 1.2285 -0.441c 0.2835 0 1.0605 0.462 1.281 0.609Z m -0.0315 0.4935c -0.2205 -0.1785 -0.777 -0.4095 -0.903 -0.4095c -0.525 0 -0.9345 0.588 -0.9345 1.8165c 0 0.5565 0.063 1.0395 0.2625 1.365c 0.1785 0.2835 0.462 0.4515 0.777 0.4515c 0.273 0 0.5355 -0.0315 0.7875 -0.378v -2.583c 0 -0.084 0 -0.1785 0.0105 -0.2625Z "/></symbol><symbol id="gD3671B133CD746AAB07834C289F0EA52" overflow="visible"><path d="M 0 0m 1.029 4.3155l 0.273 0.063c 0 0 0.3885 1.848 0.3885 2.0055c 0 0.189 -0.0315 0.3885 -0.4725 0.3885c -0.4515 0 -0.6825 -0.3255 -0.6825 -0.567c 0 -0.063 0.336 -1.848 0.336 -1.848Z "/></symbol><symbol id="g245E286C51ED100E38F9032BFC4D6EE1" overflow="visible"><path d="M 0 0m 5.355 1.3965v 1.8165c 0 0.882 0.021 0.756 0.021 1.008c 0 0.1785 -0.042 0.294 -0.105 0.357c -0.189 -0.0105 -0.399 -0.021 -0.5985 -0.021c -0.294 0 -0.9765 0.0105 -1.386 0.021c -0.063 -0.063 -0.063 -0.294 0 -0.357c 0.5355 -0.0525 0.7035 -0.126 0.7035 -1.008v -1.9425c 0 -0.105 0 -0.21 0.0105 -0.315c -0.4305 -0.2625 -0.777 -0.2835 -0.966 -0.2835c -0.42 0 -0.735 0.0525 -0.735 0.7875v 1.7535c 0 0.882 0.021 0.756 0.021 1.008c 0 0.1785 -0.042 0.294 -0.105 0.357c -0.189 -0.0105 -0.4095 -0.021 -0.5985 -0.021c -0.5355 0 -0.9345 0.0105 -1.386 0.021c -0.063 -0.063 -0.063 -0.294 0 -0.357c 0.483 -0.021 0.7035 -0.126 0.7035 -1.008v -1.638c 0 -1.113 0.441 -1.68 1.344 -1.68c 0.378 0 1.1445 0.3045 1.7535 0.6405c 0.021 -0.2625 0.042 -0.462 0.042 -0.462c 0.0105 -0.126 0.0945 -0.1785 0.2415 -0.1785c 0.3885 0.105 1.0185 0.252 1.743 0.3465c 0.021 0.063 0 0.273 -0.021 0.336c -0.567 0.0525 -0.6825 0.2205 -0.6825 0.819Z "/></symbol><symbol id="g6DAAF1986723B7B88EC7AAC1545A7ED" overflow="visible"><path d="M 0 0m 0.9975 3.2445v -4.3995c 0 -0.8715 -0.1155 -0.8925 -0.756 -0.945c -0.063 -0.063 -0.063 -0.294 0 -0.357c 0.441 0.0105 0.882 0.021 1.4385 0.021c 0.5565 0 0.987 -0.0105 1.4385 -0.021c 0.063 0.063 0.063 0.294 0 0.357c -0.6405 0.042 -0.756 0.0735 -0.756 0.945v 1.2285c 0.231 -0.1155 0.4515 -0.1785 0.7035 -0.1785c 1.596 0 2.6355 1.05 2.6355 2.5935c 0 0.588 -0.2205 1.239 -0.63 1.6485c -0.3675 0.3675 -0.8925 0.525 -1.4385 0.525c -0.3045 0 -0.8715 -0.3675 -1.239 -0.7035h -0.063c -0.021 0.294 -0.0525 0.525 -0.0525 0.525c -0.0105 0.126 -0.0945 0.1785 -0.2415 0.1785c -0.3885 -0.105 -1.0185 -0.252 -1.743 -0.3465c -0.021 -0.063 0 -0.273 0.021 -0.336c 0.5775 -0.0525 0.6825 -0.1365 0.6825 -0.735Z m 1.365 -2.562v 2.688c 0 0.063 0 0.1155 0 0.1785c 0.3045 0.273 0.693 0.4095 0.9345 0.4095c 0.4305 0 0.9345 -0.525 0.9345 -1.7535c 0 -0.882 -0.315 -1.869 -1.2285 -1.869c -0.1155 0 -0.378 0.063 -0.6405 0.3465Z "/></symbol><symbol id="g518A476B74F8DF4A8372513E26DF1880" overflow="visible"><path d="M 0 0m 0.3885 2.1735c 0 -1.3755 1.092 -2.2785 2.499 -2.2785c 0.7455 0 1.365 0.21 1.7955 0.5985c 0.5355 0.4725 0.714 1.1865 0.714 1.7745c 0 1.3755 -0.9345 2.394 -2.499 2.394c -0.8715 0 -1.5225 -0.3045 -1.932 -0.777c -0.399 -0.462 -0.5775 -1.092 -0.5775 -1.7115Z m 2.3415 2.0475c 0.714 0 1.197 -0.8505 1.197 -2.289c 0 -1.26 -0.4935 -1.596 -0.8715 -1.596c -0.861 0 -1.197 1.2915 -1.197 2.0685c 0 0.966 0.168 1.8165 0.8715 1.8165Z "/></symbol><symbol id="gC26B91A7269DE746A588B85FB382967" overflow="visible"><path d="M 0 0m 0.6615 4.557c -0.147 0 -0.3045 -0.042 -0.441 -0.1575v -0.3045c 0 -0.0525 0.0105 -0.063 0.0525 -0.063h 0.6825c -0.021 -1.0605 -0.0315 -2.4045 -0.0315 -2.9295c 0 -0.3675 0.0945 -0.7245 0.315 -0.9135c 0.2415 -0.1995 0.6195 -0.294 0.8715 -0.294c 0.5775 0 1.218 0.294 1.428 0.588c 0 0.126 -0.063 0.189 -0.189 0.294c -0.1365 -0.105 -0.399 -0.147 -0.5985 -0.147c -0.231 0 -0.462 0.1785 -0.462 0.7035c 0 0.525 -0.0105 1.6485 -0.0105 2.6985h 1.0605c 0.105 0 0.252 0.042 0.252 0.1365v 0.3255c 0 0.042 -0.0315 0.063 -0.084 0.063h -1.2285l 0.0105 0.357c 0.021 0.7035 0.0525 1.1865 0.0525 1.1865c 0 0.063 -0.0315 0.0945 -0.084 0.0945c -0.0735 0 -0.462 -0.1155 -0.63 -0.189c -0.1785 -0.0735 -0.483 -0.1365 -0.5565 -0.231c -0.0735 -0.0945 -0.1155 -0.378 -0.1155 -1.218Z "/></symbol><symbol id="g7CFC8904D6787F21F298CCE9AAF2959B" overflow="visible"><path d="M 0 0m 2.415 1.344v 2.688h 0.903c 0.189 0 0.3675 0.0525 0.3675 0.1785v 0.2415c 0 0.063 -0.0105 0.105 -0.21 0.105h -1.0605v 0.5355c 0 1.5645 0.4305 1.7955 0.6615 1.7955c 0.1785 0 0.2205 -0.1575 0.294 -0.4095c 0.0945 -0.336 0.3675 -0.5985 0.7455 -0.5985c 0.3465 0 0.5985 0.2205 0.5985 0.672c 0 0.2835 -0.3255 0.777 -1.4385 0.777c -0.4935 0 -1.0815 -0.1785 -1.4805 -0.609c -0.3885 -0.42 -0.7455 -0.945 -0.7455 -1.953v -0.21h -0.021c -0.357 0 -0.7875 -0.0525 -0.7875 -0.1365v -0.2835c 0 -0.0735 0.042 -0.105 0.2835 -0.105h 0.525v -2.709c 0 -0.861 -0.168 -0.9555 -0.8085 -0.987c -0.063 -0.063 -0.063 -0.294 0 -0.357c 0.441 0.0105 0.9135 0.021 1.491 0.021c 0.5775 0 1.0395 -0.0105 1.491 -0.021c 0.063 0.063 0.063 0.294 0 0.357c -0.6405 0.0315 -0.8085 0.126 -0.8085 1.008Z "/></symbol><symbol id="g6C61257ED33AFE6F8EEFAA730EA7AE53" overflow="visible"><path d="M 0 0m 1.05 1.3335c 0 -0.8715 -0.168 -0.966 -0.8085 -0.9975c -0.063 -0.063 -0.063 -0.294 0 -0.357c 0.441 0.0105 0.9135 0.021 1.491 0.021c 0.5775 0 1.0395 -0.0105 1.491 -0.021c 0.063 0.063 0.063 0.294 0 0.357c -0.6405 0.0315 -0.8085 0.126 -0.8085 0.9975v 4.788c 0 0.6825 0.0315 1.071 0.0315 1.071c 0 0.0945 -0.0735 0.1365 -0.168 0.1365c -0.3885 -0.126 -1.2285 -0.2415 -1.974 -0.273c -0.0315 -0.126 -0.021 -0.2415 0.0315 -0.336c 0.6615 -0.0525 0.714 -0.063 0.714 -0.7875Z "/></symbol><symbol id="g973E74818DE1222E7B8CD08317AFEFAD" overflow="visible"><path d="M 0 0m 3.0975 0.5145c 0.0735 -0.4305 0.357 -0.6195 0.819 -0.6195c 0.5775 0 0.987 0.2205 1.3755 0.588c -0.021 0.126 -0.063 0.21 -0.189 0.294c -0.1365 -0.105 -0.2415 -0.147 -0.441 -0.147c -0.231 0 -0.294 0.189 -0.294 0.7035l 0.021 1.512c 0 1.512 -0.9345 1.8165 -1.7955 1.8165c -0.7665 0 -1.9425 -0.441 -1.9425 -1.134c 0 -0.294 0.126 -0.525 0.5355 -0.525c 0.378 0 0.651 0.231 0.651 0.483c 0 0.0525 -0.0105 0.1155 -0.021 0.1785c -0.021 0.105 -0.042 0.21 -0.021 0.315c 0.0105 0.1155 0.0945 0.2415 0.441 0.2415c 0.441 0 0.8085 -0.189 0.8085 -1.5225l -0.7035 -0.2205c -1.1025 -0.3465 -1.8795 -0.651 -1.8795 -1.4805c 0 -0.7245 0.399 -1.1025 1.3125 -1.1025c 0.3045 0 0.9135 0.336 1.26 0.609Z m -0.0525 1.7745v -1.386c -0.2625 -0.21 -0.525 -0.378 -0.714 -0.378c -0.4515 0 -0.609 0.3045 -0.609 0.63c 0 0.3885 0.0315 0.714 0.777 0.9555Z m -0.777 4.788c -0.042 0.0105 -0.1575 0.021 -0.21 0.021c -0.378 0 -0.6825 -0.2415 -0.7665 -0.336l -0.021 -0.1155l 1.2705 -1.1025c 0.1785 -0.1575 0.2835 -0.21 0.3675 -0.21c 0.0945 0 0.1785 0.0735 0.1785 0.168c 0 0.084 -0.0525 0.1995 -0.0945 0.273Z "/></symbol><symbol id="g20BA59AEF5EFB619143DE199CADB2BB0" overflow="visible"><path d="M 0 0m 1.9215 0.7665l 0.651 0.9135c 0.042 0.0525 0.0735 0.084 0.105 0.0315l 0.504 -0.9555c 0.1785 -0.336 0.0735 -0.3675 -0.294 -0.42c -0.063 -0.063 -0.063 -0.294 0 -0.357c 0.21 0.0105 0.8715 0.021 1.428 0.021c 0.546 0 1.197 -0.0105 1.407 -0.021c 0.063 0.063 0.063 0.294 0 0.357c -0.3885 0.063 -0.7455 0.1995 -1.0815 0.7035l -0.924 1.3755c -0.0525 0.084 -0.0525 0.1155 -0.021 0.1575l 0.9345 1.134c 0.294 0.357 0.672 0.483 0.9975 0.5145c 0.063 0.063 0.063 0.294 0 0.357c -0.21 -0.0105 -0.5355 -0.021 -0.882 -0.021c -0.4095 0 -0.84 0.0105 -1.05 0.021c -0.063 -0.063 -0.063 -0.294 0 -0.357c 0.378 -0.0315 0.462 -0.147 0.252 -0.4515l -0.567 -0.8085c -0.0315 -0.0525 -0.084 -0.0525 -0.126 0.021l -0.4725 0.798c -0.2205 0.378 -0.084 0.399 0.315 0.441c 0.063 0.063 0.063 0.294 0 0.357c -0.21 -0.0105 -0.8925 -0.021 -1.47 -0.021c -0.5145 0 -1.113 0.0105 -1.323 0.021c -0.063 -0.063 -0.063 -0.294 0 -0.357c 0.4725 0 0.6825 -0.2835 0.9765 -0.7035l 0.9345 -1.3335c 0.0315 -0.042 0.0315 -0.084 -0.0315 -0.1575l -0.966 -1.197c -0.2625 -0.336 -0.7245 -0.4515 -1.0395 -0.4935c -0.063 -0.063 -0.063 -0.294 0 -0.357c 0.21 0.0105 0.5355 0.021 0.8715 0.021c 0.4515 0 0.945 -0.0105 1.155 -0.021c 0.063 0.063 0.063 0.294 0 0.357c -0.189 0.042 -0.5145 0.105 -0.2835 0.4305Z "/></symbol><symbol id="g3E169982254737EC9950E61E5FD7A437" overflow="visible"><path d="M 0 0m 0.504 1.533c 0.042 -0.5145 0.0945 -1.008 0.1785 -1.407c 0.1995 -0.063 0.8715 -0.231 1.4595 -0.231c 0.8085 0 1.8165 0.441 1.8165 1.3545c 0 0.357 -0.084 0.6405 -0.3255 0.903c -0.294 0.336 -0.735 0.5985 -1.218 0.8085c -0.42 0.1785 -0.567 0.5145 -0.567 0.819c 0 0.2415 0.1995 0.441 0.504 0.441c 0.3675 0 0.7245 -0.336 0.987 -0.9765c 0.189 -0.0315 0.3045 -0.021 0.4095 0.0525c 0 0.378 -0.042 0.777 -0.1365 1.113c -0.336 0.147 -0.5985 0.252 -1.176 0.252c -0.5565 0 -1.0815 -0.21 -1.4175 -0.546c -0.2415 -0.2415 -0.357 -0.5355 -0.357 -0.819c 0 -0.315 0.126 -0.567 0.3255 -0.7875c 0.3255 -0.357 0.903 -0.7245 1.218 -0.8715c 0.42 -0.189 0.5355 -0.567 0.5355 -0.819c 0 -0.336 -0.336 -0.5145 -0.6195 -0.5145c -0.4725 0 -0.9765 0.483 -1.197 1.2495c -0.168 0.0315 -0.252 0.021 -0.42 -0.021Z "/></symbol><symbol id="g5F8CB9E3C9C80C53151BD4616A8D8382" overflow="visible"><path d="M 0 0m 5.5125 4.5255h -2.3625c -0.504 0 -0.9765 -0.1575 -1.407 -0.483c -0.672 -0.5145 -1.344 -1.4175 -1.344 -2.4885c 0 -0.945 0.651 -1.6695 1.596 -1.6695c 0.7035 0 1.3335 0.3045 1.869 0.9135c 0.5145 0.588 0.7665 1.239 0.7665 1.9635c 0 0.4305 -0.0945 0.7875 -0.2835 1.0815h 1.0605c 0.3675 0 0.546 0.126 0.546 0.3885c 0 0.2415 -0.1785 0.294 -0.441 0.294Z m -4.389 -3.255c 0 0.6195 0.147 1.1865 0.4515 1.6905c 0.357 0.588 0.819 0.882 1.3965 0.882c 0.609 0 0.9135 -0.315 0.9135 -0.9555c 0 -0.2625 -0.0525 -0.567 -0.1575 -0.924c -0.21 -0.7455 -0.5565 -1.2705 -1.0395 -1.554c -0.2415 -0.147 -0.4725 -0.2205 -0.6825 -0.2205c -0.5775 0 -0.882 0.4725 -0.882 1.0815Z "/></symbol><symbol id="gE1191644B8AD687076B3ABC30E3AED9E" overflow="visible"><path d="M 0 0m 0.87465 3.1164c 0.2352 0 0.4116 0.1764 0.4116 0.4116c 0 0.2646 -0.13965 0.40425 -0.4116 0.4116c 0.1617 0.34545 0.5292 0.62475 1.00695 0.62475c 0.6468 0 1.0731 -0.4851 1.0731 -1.1319c 0 -0.3528 -0.12495 -0.6909 -0.3822 -1.02165c -0.12495 -0.16905 -0.2205 -0.28665 -0.28665 -0.3528l -1.74195 -1.72725c -0.09555 -0.0882 -0.08085 -0.11025 -0.08085 -0.33075h 3.0282l 0.22785 1.3818h -0.3087c -0.05145 -0.38955 -0.11025 -0.6174 -0.1764 -0.66885c -0.03675 -0.02205 -0.2646 -0.03675 -0.69825 -0.03675h -1.2495c 0.49245 0.43365 0.94815 0.8232 1.3818 1.16865c 0.33075 0.25725 0.56595 0.4851 0.71295 0.68355c 0.2205 0.28665 0.33075 0.588 0.33075 0.90405c 0 0.4557 -0.1764 0.81585 -0.53655 1.08045c -0.31605 0.24255 -0.71295 0.3675 -1.18335 0.3675c -0.40425 0 -0.7497 -0.1176 -1.05105 -0.3528c -0.31605 -0.25725 -0.47775 -0.58065 -0.47775 -0.97755c 0 -0.2499 0.18375 -0.43365 0.4116 -0.43365Z "/></symbol><symbol id="g14247BF656216A597F56E88701D6234E" overflow="visible"><path d="M 0 0m 2.97675 3.24135c -0.36015 0 -0.69825 -0.1617 -1.0143 -0.4851c -0.11025 0.3234 -0.3675 0.4851 -0.75705 0.4851c -0.34545 0 -0.6027 -0.27195 -0.7791 -0.8232c -0.0588 -0.1764 -0.0882 -0.2793 -0.0882 -0.31605c 0 -0.08085 0.05145 -0.12495 0.15435 -0.12495c 0.147 0 0.15435 0.08085 0.1911 0.24255c 0.12495 0.50715 0.28665 0.75705 0.4998 0.75705c 0.13965 0 0.2058 -0.11025 0.2058 -0.3234c 0 -0.08085 -0.00735 -0.15435 -0.02205 -0.21315l -0.8232 -3.3075c -0.05145 -0.2058 -0.06615 -0.24255 -0.3234 -0.24255c -0.15435 0 -0.22785 -0.0441 -0.22785 -0.1764c 0 -0.09555 0.0441 -0.13965 0.1323 -0.13965c 0.1176 0 0.4998 0.0294 0.62475 0.0294c 0.13965 0 0.6174 -0.0294 0.75705 -0.0294c 0.1176 0 0.1764 0.06615 0.1764 0.1911c 0 0.08085 -0.0735 0.12495 -0.2205 0.12495c -0.21315 0 -0.3234 0.02205 -0.3234 0.0588c 0 0.00735 0.00735 0.0441 0.02205 0.09555l 0.3087 1.2495c 0.16905 -0.25725 0.41895 -0.3822 0.735 -0.3822c 0.4998 0 0.9408 0.22785 1.33035 0.6762c 0.37485 0.43365 0.5586 0.90405 0.5586 1.4112c 0 0.68355 -0.4263 1.24215 -1.1172 1.24215Z m -0.02205 -0.2646c 0.33075 0 0.4998 -0.2205 0.4998 -0.66885c 0 -0.41895 -0.2205 -1.1613 -0.3675 -1.44795c -0.147 -0.30135 -0.49245 -0.6909 -0.882 -0.6909c -0.147 0 -0.27195 0.0441 -0.37485 0.13965c -0.1617 0.15435 -0.24255 0.3087 -0.24255 0.46305c 0 0.0147 0.00735 0.05145 0.02205 0.1029l 0.36015 1.4553c 0.3234 0.43365 0.65415 0.6468 0.9849 0.6468Z "/></symbol><symbol id="g697EDEA13A57B66236BD86B36C96CC91" overflow="visible"><path d="M 0 0m 7.329 3.8535h -6.489c -0.168 0 -0.252 -0.084 -0.252 -0.2415c 0 -0.1575 0.084 -0.2415 0.252 -0.2415h 6.489c 0.168 0 0.252 0.084 0.252 0.2415c 0 0.126 -0.1155 0.2415 -0.252 0.2415Z m 0 -1.974h -6.489c -0.168 0 -0.252 -0.084 -0.252 -0.2415c 0 -0.1575 0.084 -0.2415 0.252 -0.2415h 6.489c 0.168 0 0.252 0.084 0.252 0.2415c 0 0.1365 -0.1155 0.2415 -0.252 0.2415Z "/></symbol><symbol id="g5CA98E4DB16CEDBBAF20653A34816D5D" overflow="visible"><path d="M 0 0m 6.195 4.1055c 0 -0.0945 0.0525 -0.1995 0.168 -0.3045c 0.2415 -0.231 0.3675 -0.5145 0.3675 -0.8505c 0 -0.1785 -0.063 -0.462 -0.189 -0.8715c -0.3885 -1.26 -0.882 -1.89 -1.4805 -1.89c -0.4935 0 -0.735 0.2835 -0.735 0.861c 0 0.1995 0.042 0.441 0.1155 0.7455c 0.189 0.756 0.3885 1.5015 0.567 2.268c 0.021 0.0735 0.0315 0.1155 0.0315 0.147c 0 0.21 -0.1155 0.315 -0.3465 0.315c -0.21 0 -0.3465 -0.105 -0.42 -0.315l -0.42 -1.638c -0.1575 -0.609 -0.273 -0.819 -0.273 -1.365c 0 -0.084 0 -0.147 0.0105 -0.1785c -0.2415 -0.5565 -0.546 -0.84 -0.9135 -0.84c -0.525 0 -0.7875 0.3045 -0.7875 0.903c 0 0.3885 0.1785 1.05 0.5355 1.9845c 0.1155 0.315 0.1785 0.5355 0.1785 0.672c 0 0.5145 -0.378 0.8925 -0.8925 0.8925c -0.4725 0 -0.8295 -0.2625 -1.092 -0.7875c -0.21 -0.4095 -0.315 -0.693 -0.315 -0.84c 0 -0.0945 0.0525 -0.147 0.168 -0.147c 0.1365 0 0.1575 0.063 0.1995 0.21c 0.252 0.84 0.588 1.26 1.008 1.26c 0.147 0 0.2205 -0.105 0.2205 -0.3045c 0 -0.1575 -0.063 -0.3885 -0.1785 -0.7035c -0.3885 -1.0185 -0.588 -1.7115 -0.588 -2.1c 0 -0.8925 0.5985 -1.344 1.512 -1.344c 0.441 0 0.798 0.2205 1.0815 0.672c 0.21 -0.4515 0.6405 -0.672 1.302 -0.672c 0.651 0 1.1655 0.4305 1.533 1.2915c 0.2415 0.546 0.693 1.995 0.693 2.6985c 0 0.1575 -0.0105 0.2625 -0.021 0.315c -0.042 0.1995 -0.2415 0.4515 -0.4725 0.4515c -0.273 0 -0.567 -0.2625 -0.567 -0.5355Z "/></symbol><symbol id="g2B03AB0F5AB407A22EF3D63210D28B37" overflow="visible"><path d="M 0 0m 2.22705 4.8804c -0.31605 -0.3087 -0.78645 -0.46305 -1.4259 -0.46305v -0.3234c 0.43365 0 0.7791 0.06615 1.0437 0.1911v -3.6603c 0 -0.09555 -0.00735 -0.15435 -0.0294 -0.18375c -0.03675 -0.08085 -0.25725 -0.12495 -0.6615 -0.12495h -0.30135v -0.31605l 1.3083 0.0294l 1.31565 -0.0294v 0.31605h -0.30135c -0.40425 0 -0.62475 0.0441 -0.66885 0.12495c -0.0147 0.0294 -0.02205 0.0882 -0.02205 0.18375v 4.02045c 0 0.19845 -0.0294 0.2352 -0.25725 0.2352Z "/></symbol><symbol id="g2E528393F503661DFA479F53C57DA451" overflow="visible"><path d="M 0 0m 7.329 2.877h -2.9925v 2.9925c 0 0.168 -0.084 0.252 -0.252 0.252c -0.168 0 -0.252 -0.084 -0.252 -0.252v -2.9925h -2.9925c -0.168 0 -0.252 -0.084 -0.252 -0.252c 0 -0.168 0.084 -0.252 0.252 -0.252h 2.9925v -2.9925c 0 -0.168 0.084 -0.252 0.252 -0.252c 0.168 0 0.252 0.084 0.252 0.252v 2.9925h 2.9925c 0.168 0 0.252 0.084 0.252 0.252c 0 0.1365 -0.1155 0.252 -0.252 0.252Z "/></symbol><symbol id="g25692DF91EE05E63BB6B39D3AB17D1AD" overflow="visible"><path d="M 0 0m 2.4885 6.993c -0.5355 0 -0.987 -0.189 -1.3755 -0.567c -0.3885 -0.378 -0.588 -0.819 -0.588 -1.3545c 0 -0.357 0.2625 -0.6195 0.588 -0.6195c 0.315 0 0.5775 0.273 0.5775 0.588c 0 0.3465 -0.252 0.588 -0.588 0.588c -0.0315 0 -0.0525 0 -0.0735 -0.0105c 0.1995 0.5145 0.6615 0.966 1.323 0.966c 0.861 0 1.344 -0.7455 1.344 -1.6485c 0 -0.7035 -0.357 -1.4595 -1.071 -2.2575l -1.974 -2.226c -0.1365 -0.1575 -0.126 -0.147 -0.126 -0.4515h 3.8955l 0.3045 1.89h -0.3465c -0.084 -0.5355 -0.1575 -0.84 -0.2205 -0.9345c -0.0525 -0.0525 -0.3675 -0.0735 -0.945 -0.0735h -1.7535l 1.0185 0.9975c 0.714 0.672 1.617 1.3965 1.9215 1.953c 0.21 0.3675 0.315 0.735 0.315 1.1025c 0 1.239 -0.966 2.058 -2.226 2.058Z "/></symbol><symbol id="g6DEC9C647F9699520A453CE3EBF85972" overflow="visible"><path d="M 0 0m 3.7905 4.641c -1.1865 0 -2.1735 -1.281 -2.436 -2.331l -1.008 -4.0845c -0.021 -0.084 -0.0315 -0.1365 -0.0315 -0.168c 0 -0.2205 0.105 -0.3255 0.3255 -0.3255c 0.1575 0 0.294 0.084 0.399 0.2415l 0.6405 2.5095c 0.2415 -0.4095 0.5775 -0.6195 1.008 -0.6195c 0.693 0 1.302 0.336 1.8375 1.0185c 0.4935 0.6405 0.7455 1.323 0.7455 2.0265c 0 0.9555 -0.5565 1.7325 -1.4805 1.7325Z m -0.021 -0.315c 0.4515 0 0.672 -0.3255 0.672 -0.9765c 0 -0.2835 -0.063 -0.651 -0.1785 -1.1235c -0.231 -0.8925 -0.5565 -1.491 -0.966 -1.806c -0.2205 -0.168 -0.42 -0.252 -0.6195 -0.252c -0.1995 0 -0.378 0.0735 -0.5145 0.21c -0.2205 0.2205 -0.3255 0.4515 -0.3255 0.672c 0.0105 0.0735 0.0315 0.1995 0.0735 0.378c 0.2415 0.9975 0.4515 1.638 0.6195 1.932c 0.3675 0.6405 0.777 0.966 1.239 0.966Z "/></symbol><symbol id="g81FD5DA4387488C01EBC0EB45555DEB4" overflow="visible"><path d="M 0 0m 1.24215 0.84525c -0.2352 0 -0.41895 -0.1911 -0.41895 -0.43365c 0 -0.25725 0.1764 -0.44835 0.4263 -0.44835c 0.09555 0 0.18375 0.0294 0.25725 0.08085c -0.0147 -0.4851 -0.1911 -0.8967 -0.5292 -1.22745c -0.03675 -0.03675 -0.0588 -0.06615 -0.0588 -0.1029c 0 -0.0882 0.0441 -0.1323 0.12495 -0.1323c 0.05145 0 0.12495 0.0588 0.2352 0.1764c 0.24255 0.2646 0.47775 0.80115 0.47775 1.2789c 0 0.40425 -0.147 0.8085 -0.5145 0.8085Z "/></symbol></defs></svg>